M48
; DRILL file {KiCad 5.1.6-c6e7f7d~87~ubuntu18.04.1} date Fri Jan 15 14:59:32 2021
; FORMAT={-:-/ absolute / inch / decimal}
; #@! TF.CreationDate,2021-01-15T14:59:32+02:00
; #@! TF.GenerationSoftware,Kicad,Pcbnew,5.1.6-c6e7f7d~87~ubuntu18.04.1
; #@! TF.FileFunction,NonPlated,1,4,NPTH
FMAT,2
INCH
T1C0.0236
T2C0.0276
T3C0.0669
T4C0.1260
T5C0.1299
%
G90
G05
T1
X7.3302Y-2.5713
X7.3302Y-2.7287
X6.7091Y-3.4467
X6.7091Y-3.9033
T2
X6.8Y-2.05
X6.8Y-2.95
X4.7Y-2.8
X4.7Y-2.95
X4.7Y-1.75
X4.7Y-2.65
X6.8Y-1.75
X6.8Y-1.9
X4.5Y-1.4
X5.4Y-1.4
T3
X4.1339Y-1.95
X4.3701Y-1.95
X4.1339Y-2.6
X4.3701Y-2.6
T4
X5.275Y-3.75
X5.725Y-3.75
T5
X6.9Y-1.515
X4.1339Y-3.8976
X4.1339Y-1.378
X7.4409Y-3.8976
T0
M30
