M48
; DRILL file {KiCad 5.1.6-c6e7f7d~87~ubuntu18.04.1} date Fri Jan 15 14:59:32 2021
; FORMAT={-:-/ absolute / inch / decimal}
; #@! TF.CreationDate,2021-01-15T14:59:32+02:00
; #@! TF.GenerationSoftware,Kicad,Pcbnew,5.1.6-c6e7f7d~87~ubuntu18.04.1
; #@! TF.FileFunction,Plated,1,4,PTH
FMAT,2
INCH
T1C0.0157
T2C0.0236
T3C0.0354
T4C0.0394
T5C0.0433
T6C0.0709
T7C0.0945
%
G90
G05
T1
X4.135Y-2.525
X4.2628Y-1.9149
X4.265Y-1.875
X4.2674Y-1.9524
X4.355Y-2.915
X4.37Y-2.525
X4.38Y-2.8875
X4.39Y-1.65
X4.41Y-2.93
X4.41Y-1.53
X4.4239Y-2.9635
X4.4824Y-2.9515
X4.485Y-2.985
X4.495Y-2.475
X4.525Y-1.53
X4.525Y-3.0
X4.555Y-3.145
X4.555Y-3.215
X4.565Y-2.625
X4.565Y-2.675
X4.57Y-2.125
X4.57Y-2.025
X4.57Y-1.775
X4.57Y-1.825
X4.57Y-1.875
X4.57Y-1.925
X4.57Y-1.975
X4.57Y-2.075
X4.57Y-2.175
X4.575Y-1.53
X4.59Y-2.725
X4.625Y-1.53
X4.64Y-3.105
X4.67Y-2.625
X4.67Y-2.675
X4.675Y-1.53
X4.725Y-1.53
X4.73Y-2.625
X4.775Y-1.53
X4.82Y-3.145
X4.82Y-3.215
X4.825Y-1.53
X4.825Y-2.625
X4.875Y-1.53
X4.895Y-3.055
X4.925Y-1.53
X5.01Y-2.805
X5.015Y-3.025
X5.025Y-2.455
X5.055Y-3.025
X5.06Y-2.805
X5.075Y-3.235
X5.075Y-3.275
X5.095Y-3.025
X5.095Y-3.15
X5.11Y-2.805
X5.11Y-3.235
X5.15Y-3.235
X5.16Y-2.805
X5.185Y-2.48
X5.185Y-3.025
X5.185Y-3.235
X5.185Y-3.275
X5.2671Y-2.4174
X5.285Y-2.455
X5.29Y-3.145
X5.2958Y-2.3858
X5.31Y-2.48
X5.325Y-3.145
X5.33Y-2.81
X5.33Y-2.845
X5.33Y-2.88
X5.33Y-2.915
X5.33Y-2.95
X5.355Y-2.6333
X5.355Y-2.42
X5.355Y-2.465
X5.355Y-2.68
X5.355Y-2.73
X5.375Y-1.37
X5.375Y-1.43
X5.375Y-1.53
X5.395Y-2.63
X5.395Y-2.35
X5.395Y-2.42
X5.405Y-1.69
X5.4051Y-1.6549
X5.42Y-2.81
X5.42Y-2.95
X5.425Y-1.43
X5.425Y-1.53
X5.43Y-2.705
X5.435Y-2.36
X5.44Y-1.64
X5.445Y-1.605
X5.455Y-3.02
X5.47Y-2.885
X5.485Y-1.605
X5.495Y-2.95
X5.515Y-3.22
X5.52Y-2.885
X5.545Y-2.95
X5.55Y-3.13
X5.64Y-2.305
X5.66Y-2.205
X5.685Y-3.055
X5.685Y-3.095
X5.7Y-1.715
X5.715Y-2.205
X5.715Y-2.86
X5.735Y-3.095
X5.745Y-2.305
X5.745Y-3.22
X5.755Y-2.205
X5.765Y-1.89
X5.785Y-2.86
X5.785Y-3.265
X5.795Y-3.055
X5.795Y-3.095
X5.805Y-2.205
X5.82Y-3.265
X5.8383Y-2.8654
X5.86Y-3.265
X5.865Y-2.205
X5.865Y-3.055
X5.865Y-3.095
X5.8719Y-2.8654
X5.9071Y-2.859
X5.915Y-2.205
X5.94Y-3.095
X5.975Y-3.8938
X5.98Y-2.205
X5.9998Y-3.2839
X6.0Y-3.055
X6.0Y-3.365
X6.03Y-2.205
X6.055Y-2.27
X6.055Y-2.9132
X6.055Y-2.9468
X6.08Y-2.405
X6.08Y-3.87
X6.1Y-2.205
X6.105Y-2.38
X6.105Y-3.935
X6.13Y-3.225
X6.16Y-2.205
X6.1881Y-3.4331
X6.2119Y-3.4569
X6.26Y-2.175
X6.26Y-2.6982
X6.26Y-2.7318
X6.26Y-2.8182
X6.26Y-2.8518
X6.2681Y-3.5031
X6.2919Y-3.5269
X6.295Y-2.32
X6.295Y-2.43
X6.295Y-2.505
X6.2975Y-2.175
X6.31Y-2.595
X6.375Y-3.055
X6.375Y-3.015
X6.385Y-2.185
X6.385Y-2.23
X6.385Y-2.275
X6.385Y-2.32
X6.39Y-2.89
X6.395Y-2.51
X6.4014Y-3.68
X6.425Y-2.465
X6.425Y-2.56
X6.425Y-2.78
X6.425Y-3.74
X6.4257Y-2.732
X6.43Y-2.915
X6.43Y-2.965
X6.4605Y-3.6547
X6.47Y-2.67
X6.47Y-2.755
X6.47Y-3.24
X6.475Y-3.6244
X6.48Y-3.705
X6.5Y-1.71
X6.51Y-2.075
X6.515Y-3.7651
X6.5151Y-3.7152
X6.535Y-1.715
X6.57Y-1.715
X6.57Y-1.75
X6.57Y-1.785
X6.6331Y-1.7581
X6.6569Y-1.7819
X6.67Y-2.775
X6.67Y-2.275
X6.67Y-2.325
X6.67Y-2.375
X6.67Y-2.425
X6.67Y-2.475
X6.67Y-2.525
X6.67Y-2.575
X6.67Y-2.625
X6.67Y-2.675
X6.67Y-2.725
X6.68Y-3.28
X6.72Y-3.0832
X6.72Y-3.1168
X6.745Y-3.305
X6.7672Y-2.225
X6.77Y-2.925
X6.7714Y-2.173
X6.7731Y-2.1213
X6.7745Y-2.825
X6.78Y-2.875
X6.795Y-3.875
X6.8Y-2.0
X6.82Y-3.005
X6.82Y-3.8252
X6.83Y-2.075
X6.83Y-2.325
X6.83Y-2.375
X6.83Y-2.425
X6.83Y-2.475
X6.83Y-2.525
X6.83Y-2.575
X6.83Y-2.625
X6.845Y-3.505
X6.8601Y-3.5588
X6.8686Y-3.658
X6.87Y-3.6084
X6.9066Y-3.6916
X6.918Y-3.79
X6.93Y-2.025
X6.935Y-2.275
X6.94Y-3.73
X6.945Y-2.315
X6.945Y-2.35
X6.955Y-2.4532
X6.955Y-2.4868
X6.961Y-2.925
X6.965Y-2.1
X6.967Y-2.875
X6.97Y-1.92
X6.97Y-2.725
X6.97Y-2.775
X6.97Y-2.825
X6.97Y-2.975
X6.9931Y-2.6619
X7.015Y-1.965
X7.0169Y-2.6381
X7.02Y-3.28
X7.05Y-2.125
X7.05Y-2.695
X7.06Y-2.92
X7.06Y-3.2
X7.1Y-3.2
X7.125Y-2.965
X7.165Y-2.545
X7.2086Y-2.615
X7.2324Y-3.0024
X7.265Y-3.285
X7.425Y-2.97
X7.3681Y-1.5459
T2
X4.055Y-1.525
X4.055Y-1.625
X4.055Y-1.75
X4.055Y-1.85
X4.055Y-1.95
X4.055Y-2.05
X4.055Y-2.175
X4.055Y-2.275
X4.055Y-2.475
X4.055Y-2.575
X4.055Y-2.675
X4.055Y-2.775
X4.055Y-2.875
X4.055Y-2.975
X4.055Y-3.075
X4.055Y-3.175
X4.055Y-3.275
X4.055Y-3.375
X4.055Y-3.475
X4.055Y-3.575
X4.055Y-3.675
X4.15Y-3.675
X4.25Y-3.675
X4.25Y-3.775
X4.35Y-3.675
X4.35Y-3.775
X4.35Y-3.875
X4.45Y-3.875
X4.45Y-3.975
X4.49Y-3.05
X4.55Y-3.875
X4.55Y-3.975
X4.625Y-3.505
X4.65Y-3.775
X4.65Y-3.875
X4.65Y-3.975
X4.715Y-3.075
X4.725Y-2.695
X4.75Y-3.775
X4.75Y-3.875
X4.75Y-3.975
X4.85Y-3.875
X4.85Y-3.975
X4.95Y-3.975
X5.025Y-3.1
X5.145Y-3.475
X5.2Y-3.425
X5.2Y-3.475
X5.2Y-3.525
X5.3201Y-3.6299
X5.325Y-3.8299
X5.4201Y-3.6299
X5.4201Y-3.7299
X5.4201Y-3.8299
X5.4201Y-3.9299
X5.5Y-1.3
X5.5Y-1.725
X5.5Y-1.8
X5.5Y-1.9
X5.5201Y-3.6299
X5.5201Y-3.7299
X5.5201Y-3.8299
X5.5201Y-3.9299
X5.55Y-2.325
X5.55Y-2.375
X5.6Y-1.3
X5.6Y-1.375
X5.6Y-1.725
X5.6Y-1.8
X5.6201Y-3.6299
X5.6201Y-3.7299
X5.6201Y-3.8299
X5.65Y-2.5
X5.65Y-2.6
X5.65Y-2.7
X5.65Y-2.8
X5.7Y-1.3
X5.7Y-1.375
X5.7Y-1.975
X5.7Y-2.05
X5.7201Y-3.6299
X5.725Y-3.425
X5.75Y-2.5
X5.75Y-2.6
X5.75Y-2.7
X5.75Y-2.8
X5.8Y-1.3
X5.8Y-1.375
X5.8Y-1.975
X5.8Y-2.05
X5.825Y-3.425
X5.85Y-2.5
X5.85Y-2.6
X5.85Y-2.7
X5.85Y-2.8
X5.9Y-1.3
X5.9Y-1.375
X5.9Y-1.975
X5.9Y-2.05
X5.95Y-2.5
X5.95Y-2.6
X5.95Y-2.7
X5.95Y-2.8
X6.0Y-1.3
X6.0Y-1.375
X6.0Y-1.975
X6.0Y-2.05
X6.0Y-3.975
X6.1Y-1.3
X6.1Y-1.375
X6.1Y-1.975
X6.1Y-2.05
X6.1Y-3.975
X6.2Y-1.3
X6.2Y-1.375
X6.2Y-1.975
X6.2Y-2.05
X6.2Y-3.675
X6.2Y-3.775
X6.2Y-3.875
X6.2Y-3.975
X6.3Y-1.3
X6.3Y-1.375
X6.3Y-2.05
X6.3Y-3.675
X6.3Y-3.775
X6.3Y-3.875
X6.3Y-3.975
X6.4Y-1.3
X6.4Y-1.375
X6.4Y-3.875
X6.4Y-3.975
X6.47Y-2.355
X6.5Y-1.3
X6.5Y-1.375
X6.5Y-3.875
X6.5Y-3.975
X6.6Y-1.3
X6.6Y-1.375
X6.6Y-3.975
X6.6573Y-2.0214
X6.665Y-3.35
X6.7Y-1.3
X6.7Y-1.375
X6.7Y-3.175
X6.7Y-3.975
X6.705Y-3.35
X6.745Y-3.35
X6.785Y-3.095
X6.785Y-3.175
X6.785Y-3.29
X6.785Y-3.35
X6.795Y-2.66
X6.8Y-1.3
X6.8Y-1.375
X6.8Y-3.975
X6.9Y-3.975
X7.0Y-3.975
X7.015Y-2.75
X7.015Y-3.1001
X7.02Y-1.65
X7.02Y-1.7
X7.02Y-1.75
X7.02Y-3.21
X7.05Y-1.8
X7.055Y-1.6
X7.08Y-2.29
X7.08Y-2.415
X7.1Y-1.825
X7.1Y-3.975
X7.1342Y-1.6
X7.135Y-3.05
X7.135Y-3.155
X7.15Y-1.825
X7.2Y-1.825
X7.2Y-3.975
X7.2113Y-1.6
X7.25Y-1.825
X7.265Y-3.385
X7.2885Y-1.6
X7.3Y-1.85
X7.3Y-1.9
X7.3Y-1.95
X7.3Y-3.975
X7.345Y-2.875
X7.345Y-3.05
X7.35Y-1.95
X7.3657Y-1.6
X7.375Y-3.75
X7.4Y-1.95
X7.4Y-2.6
X7.4Y-2.7
X7.4Y-3.24
X7.4428Y-1.6
X7.475Y-2.45
X7.515Y-1.75
X7.515Y-1.85
X7.515Y-1.95
X7.515Y-2.05
X7.515Y-2.15
X7.515Y-2.25
X7.515Y-2.35
X7.52Y-1.6
X7.52Y-3.275
X7.52Y-3.375
X7.52Y-3.75
X5.072Y-3.095
X5.1212Y-3.095
X5.1704Y-3.095
X5.2196Y-3.095
X5.2688Y-3.095
X5.318Y-3.095
T3
X5.3246Y-3.4862
X5.3746Y-3.3862
X5.4246Y-3.4862
X5.4746Y-3.3862
X5.5246Y-3.4862
X5.5746Y-3.3862
X5.6246Y-3.4862
X5.6746Y-3.3862
T4
X7.5Y-2.945
X4.5766Y-3.5583
X4.5766Y-3.6614
X4.675Y-3.5583
X4.675Y-3.6614
X4.7537Y-3.5583
X4.7537Y-3.6614
X4.8522Y-3.5583
X4.8522Y-3.6614
X5.6Y-1.45
X5.6Y-1.55
X5.8Y-1.45
X5.8Y-1.55
X5.9Y-1.45
X5.9Y-1.55
X6.0Y-1.45
X6.0Y-1.55
X6.1Y-1.45
X6.1Y-1.55
X6.2Y-1.45
X6.2Y-1.55
X6.3Y-1.45
X6.3Y-1.55
X6.4Y-1.45
X6.4Y-1.55
X6.5Y-1.45
X6.5Y-1.55
X6.6Y-1.45
X6.6Y-1.55
X6.7Y-1.45
X6.7Y-1.55
T5
X5.2398Y-3.9369
X5.3398Y-3.9369
X5.6602Y-3.9369
X5.7602Y-3.9369
X4.15Y-3.125
X4.15Y-3.225
X4.15Y-3.325
X4.15Y-3.425
X4.15Y-3.525
X4.25Y-3.125
X4.25Y-3.225
X4.25Y-3.325
X4.25Y-3.425
X4.25Y-3.525
T6
X5.1929Y-3.6299
X5.8071Y-3.6299
T7
X4.4557Y-3.5433
X4.4557Y-3.7677
X4.973Y-3.5433
X4.973Y-3.7677
T2
G00X7.0657Y-3.8439
M15
G01X7.1484Y-3.8439
M16
G05
G00X7.0657Y-3.6077
M15
G01X7.1602Y-3.6077
M16
G05
G00X7.2882Y-3.7791
M15
G01X7.2882Y-3.6925
M16
G05
G00X7.2664Y-2.5083
M15
G01X7.29Y-2.5083
M16
G05
G00X7.2664Y-2.7917
M15
G01X7.29Y-2.7917
M16
G05
G00X7.403Y-2.5083
M15
G01X7.4267Y-2.5083
M16
G05
G00X7.403Y-2.7917
M15
G01X7.4267Y-2.7917
M16
G05
T0
M30
