%TF.GenerationSoftware,KiCad,Pcbnew,5.1.6-c6e7f7d~87~ubuntu18.04.1*%
%TF.CreationDate,2021-01-15T14:59:15+02:00*%
%TF.ProjectId,STMP1(A13)-SOM-EVB_Rev_B,53544d50-3128-4413-9133-292d534f4d2d,B*%
%TF.SameCoordinates,Original*%
%TF.FileFunction,Soldermask,Top*%
%TF.FilePolarity,Negative*%
%FSLAX46Y46*%
G04 Gerber Fmt 4.6, Leading zero omitted, Abs format (unit mm)*
G04 Created by KiCad (PCBNEW 5.1.6-c6e7f7d~87~ubuntu18.04.1) date 2021-01-15 14:59:15*
%MOMM*%
%LPD*%
G01*
G04 APERTURE LIST*
%ADD10R,1.201600X0.301600*%
%ADD11R,0.301600X1.201600*%
%ADD12R,0.601600X0.651600*%
%ADD13C,0.100000*%
%ADD14C,3.501600*%
%ADD15C,1.601600*%
%ADD16O,1.301600X2.301600*%
%ADD17C,0.801600*%
%ADD18R,1.901600X0.801600*%
%ADD19R,1.151600X2.301600*%
%ADD20R,1.151600X1.151600*%
%ADD21R,1.625600X1.371600*%
%ADD22R,1.117600X1.117600*%
%ADD23R,0.651600X0.601600*%
%ADD24R,1.371600X1.625600*%
%ADD25R,1.879600X1.117600*%
%ADD26R,2.387600X1.879600*%
%ADD27C,1.254000*%
%ADD28R,1.701600X0.351600*%
%ADD29C,0.701600*%
%ADD30R,1.901600X1.901600*%
%ADD31R,1.901600X2.801600*%
%ADD32C,1.801600*%
%ADD33R,2.201600X3.101600*%
%ADD34R,2.601600X3.101600*%
%ADD35R,1.701600X3.101600*%
%ADD36C,1.511600*%
%ADD37C,1.751600*%
%ADD38C,2.801600*%
%ADD39C,3.301600*%
%ADD40O,4.001600X1.601600*%
%ADD41O,3.701600X1.601600*%
%ADD42O,1.601600X3.801600*%
%ADD43R,0.901600X0.901600*%
%ADD44R,1.501600X1.301600*%
%ADD45R,1.301600X0.651600*%
%ADD46R,0.701600X2.301600*%
%ADD47R,0.651600X1.301600*%
%ADD48R,1.801600X1.801600*%
%ADD49C,3.401601*%
%ADD50R,2.101600X1.801600*%
%ADD51C,1.901600*%
%ADD52R,1.851600X1.851600*%
%ADD53R,1.501600X1.101600*%
%ADD54R,0.801600X1.901600*%
%ADD55R,1.751600X0.601600*%
%ADD56R,1.751600X0.426600*%
%ADD57R,1.101600X1.201600*%
%ADD58O,1.901600X1.301600*%
%ADD59O,1.101600X1.601600*%
%ADD60R,1.879600X1.879600*%
G04 APERTURE END LIST*
D10*
%TO.C,U6*%
X154270000Y-72110000D03*
X154270000Y-71710000D03*
X154270000Y-71310000D03*
X154270000Y-70910000D03*
X154270000Y-70510000D03*
X154270000Y-70110000D03*
X154270000Y-69710000D03*
X154270000Y-69310000D03*
X154270000Y-68910000D03*
X154270000Y-68510000D03*
X154270000Y-68110000D03*
X154270000Y-67710000D03*
X154270000Y-67310000D03*
X154270000Y-66910000D03*
X154270000Y-66510000D03*
X154270000Y-66110000D03*
X154270000Y-65710000D03*
X154270000Y-65310000D03*
X154270000Y-64910000D03*
X154270000Y-64510000D03*
X154270000Y-64110000D03*
X154270000Y-63710000D03*
X154270000Y-63310000D03*
X154270000Y-62910000D03*
X154270000Y-62510000D03*
D11*
X149320000Y-60360000D03*
X148520000Y-60360000D03*
X142520000Y-60360000D03*
X148920000Y-60360000D03*
X149720000Y-60360000D03*
X145720000Y-60360000D03*
X150520000Y-60360000D03*
X152120000Y-60360000D03*
X151320000Y-60360000D03*
X146520000Y-60360000D03*
X147320000Y-60360000D03*
X145320000Y-60360000D03*
X143720000Y-60360000D03*
X150120000Y-60360000D03*
X147720000Y-60360000D03*
X146120000Y-60360000D03*
X144920000Y-60360000D03*
X151720000Y-60360000D03*
X142920000Y-60360000D03*
X148120000Y-60360000D03*
X150920000Y-60360000D03*
X146920000Y-60360000D03*
X144120000Y-60360000D03*
X143320000Y-60360000D03*
X144520000Y-60360000D03*
D10*
X140370000Y-69310000D03*
X140370000Y-68510000D03*
X140370000Y-62510000D03*
X140370000Y-68910000D03*
X140370000Y-69710000D03*
X140370000Y-65710000D03*
X140370000Y-70510000D03*
X140370000Y-72110000D03*
X140370000Y-71310000D03*
X140370000Y-66510000D03*
X140370000Y-67310000D03*
X140370000Y-65310000D03*
X140370000Y-63710000D03*
X140370000Y-70110000D03*
X140370000Y-67710000D03*
X140370000Y-66110000D03*
X140370000Y-64910000D03*
X140370000Y-71710000D03*
X140370000Y-62910000D03*
X140370000Y-68110000D03*
X140370000Y-70910000D03*
X140370000Y-66910000D03*
X140370000Y-64110000D03*
X140370000Y-63310000D03*
X140370000Y-64510000D03*
D11*
X142520000Y-74260000D03*
X149320000Y-74260000D03*
X152120000Y-74260000D03*
X146520000Y-74260000D03*
X147320000Y-74260000D03*
X150120000Y-74260000D03*
X147720000Y-74260000D03*
X146120000Y-74260000D03*
X144920000Y-74260000D03*
X149720000Y-74260000D03*
X148920000Y-74260000D03*
X145720000Y-74260000D03*
X150520000Y-74260000D03*
X151320000Y-74260000D03*
X145320000Y-74260000D03*
X143720000Y-74260000D03*
X148520000Y-74260000D03*
X151720000Y-74260000D03*
X142920000Y-74260000D03*
X148120000Y-74260000D03*
X150920000Y-74260000D03*
X146920000Y-74260000D03*
X144120000Y-74260000D03*
X143320000Y-74260000D03*
X144520000Y-74260000D03*
%TD*%
D12*
%TO.C,C3*%
X179142000Y-43688000D03*
X180158000Y-43688000D03*
%TD*%
D13*
%TO.C,R4*%
G36*
X187100000Y-45006712D02*
G01*
X187525395Y-45432107D01*
X187100000Y-45857502D01*
X186674605Y-45432107D01*
X187100000Y-45006712D01*
G37*
G36*
X187807107Y-45150395D02*
G01*
X187381712Y-44725000D01*
X187807107Y-44299605D01*
X188232502Y-44725000D01*
X187807107Y-45150395D01*
G37*
G36*
X186818288Y-44725000D02*
G01*
X186392893Y-45150395D01*
X185967498Y-44725000D01*
X186392893Y-44299605D01*
X186818288Y-44725000D01*
G37*
%TD*%
D12*
%TO.C,R16*%
X136017000Y-76073000D03*
X137033000Y-76073000D03*
%TD*%
%TO.C,C4*%
X180158000Y-41200000D03*
X179142000Y-41200000D03*
%TD*%
D14*
%TO.C,USB_HOST1*%
X113175000Y-90000000D03*
X126315000Y-90000000D03*
X126315000Y-95700000D03*
X113175000Y-95700000D03*
D15*
X123245000Y-93000000D03*
X120745000Y-93000000D03*
X118745000Y-93000000D03*
X116245000Y-93000000D03*
X123245000Y-90380000D03*
X120745000Y-90380000D03*
X118745000Y-90380000D03*
X116245000Y-90380000D03*
%TD*%
D16*
%TO.C,U1*%
X187039000Y-47621000D03*
X189039000Y-47621000D03*
X188589000Y-59821000D03*
X186069000Y-59821000D03*
X182589000Y-59821000D03*
X179809000Y-59821000D03*
%TD*%
D17*
%TO.C,GPIO-3*%
X119380000Y-74930000D03*
X119380000Y-71120000D03*
D18*
X117348000Y-70485000D03*
X121412000Y-70485000D03*
X117348000Y-71755000D03*
X121412000Y-71755000D03*
X117348000Y-73025000D03*
X121412000Y-73025000D03*
X117348000Y-74295000D03*
X121412000Y-74295000D03*
X117348000Y-75565000D03*
X121412000Y-75565000D03*
%TD*%
D17*
%TO.C,GPIO-2*%
X172720000Y-44450000D03*
X172720000Y-48260000D03*
D18*
X174752000Y-48895000D03*
X170688000Y-48895000D03*
X174752000Y-47625000D03*
X170688000Y-47625000D03*
X174752000Y-46355000D03*
X170688000Y-46355000D03*
X174752000Y-45085000D03*
X170688000Y-45085000D03*
X174752000Y-43815000D03*
X170688000Y-43815000D03*
%TD*%
D17*
%TO.C,LCD_TR1*%
X119380000Y-67310000D03*
D18*
X117348000Y-56515000D03*
X121412000Y-56515000D03*
X117348000Y-57785000D03*
X121412000Y-57785000D03*
X117348000Y-59055000D03*
X121412000Y-59055000D03*
X117348000Y-60325000D03*
X121412000Y-60325000D03*
X117348000Y-61595000D03*
X121412000Y-61595000D03*
X117348000Y-62865000D03*
X121412000Y-62865000D03*
X117348000Y-64135000D03*
X121412000Y-64135000D03*
X117348000Y-65405000D03*
X121412000Y-65405000D03*
X117348000Y-66675000D03*
X121412000Y-66675000D03*
X117348000Y-67945000D03*
X121412000Y-67945000D03*
X121412000Y-55245000D03*
X117348000Y-55245000D03*
X121412000Y-53975000D03*
X117348000Y-53975000D03*
X121412000Y-52705000D03*
X117348000Y-52705000D03*
X121412000Y-51435000D03*
X117348000Y-51435000D03*
X121412000Y-50165000D03*
X117348000Y-50165000D03*
X121412000Y-48895000D03*
X117348000Y-48895000D03*
X121412000Y-47625000D03*
X117348000Y-47625000D03*
X121412000Y-46355000D03*
X117348000Y-46355000D03*
X121412000Y-45085000D03*
X117348000Y-45085000D03*
X121412000Y-43815000D03*
X117348000Y-43815000D03*
D17*
X119380000Y-44450000D03*
%TD*%
%TO.C,GPIO-1*%
X172720000Y-74929999D03*
D18*
X174752000Y-75564999D03*
X170688000Y-75564999D03*
X174752000Y-74294999D03*
X170688000Y-74294999D03*
X174752000Y-73024999D03*
X170688000Y-73024999D03*
X174752000Y-71754999D03*
X170688000Y-71754999D03*
X174752000Y-70484999D03*
X170688000Y-70484999D03*
X174752000Y-69214999D03*
X170688000Y-69214999D03*
X174752000Y-67944999D03*
X170688000Y-67944999D03*
X174752000Y-66674999D03*
X170688000Y-66674999D03*
X174752000Y-65404999D03*
X170688000Y-65404999D03*
X174752000Y-64134999D03*
X170688000Y-64134999D03*
X170688000Y-51434999D03*
X174752000Y-51434999D03*
X170688000Y-52704999D03*
X174752000Y-52704999D03*
X170688000Y-53974999D03*
X174752000Y-53974999D03*
X170688000Y-55244999D03*
X174752000Y-55244999D03*
X170688000Y-56514999D03*
X174752000Y-56514999D03*
X170688000Y-57784999D03*
X174752000Y-57784999D03*
X170688000Y-59054999D03*
X174752000Y-59054999D03*
X170688000Y-60324999D03*
X174752000Y-60324999D03*
X170688000Y-61594999D03*
X174752000Y-61594999D03*
X170688000Y-62864999D03*
X174752000Y-62864999D03*
D17*
X172720000Y-52069999D03*
%TD*%
D19*
%TO.C,ANT2*%
X187500000Y-42025000D03*
X190500000Y-42025000D03*
D20*
X189000000Y-43525000D03*
%TD*%
D21*
%TO.C,C1*%
X184531000Y-88011000D03*
X184531000Y-90043000D03*
%TD*%
D22*
%TO.C,C2*%
X188214000Y-83566000D03*
X188214000Y-85344000D03*
%TD*%
%TO.C,C5*%
X178308000Y-82550000D03*
X180086000Y-82550000D03*
%TD*%
%TO.C,C6*%
X161925000Y-62484000D03*
X160147000Y-62484000D03*
%TD*%
D12*
%TO.C,C7*%
X161544000Y-63627000D03*
X160528000Y-63627000D03*
%TD*%
%TO.C,C8*%
X160528000Y-55499000D03*
X161544000Y-55499000D03*
%TD*%
D23*
%TO.C,C9*%
X153162000Y-57658000D03*
X153162000Y-56642000D03*
%TD*%
D12*
%TO.C,C10*%
X136017000Y-67437000D03*
X137033000Y-67437000D03*
%TD*%
D23*
%TO.C,C11*%
X140208000Y-73914000D03*
X140208000Y-74930000D03*
%TD*%
D12*
%TO.C,C12*%
X161290000Y-73914000D03*
X160274000Y-73914000D03*
%TD*%
%TO.C,C13*%
X136017000Y-61976000D03*
X137033000Y-61976000D03*
%TD*%
%TO.C,C14*%
X136017000Y-68707000D03*
X137033000Y-68707000D03*
%TD*%
D23*
%TO.C,C15*%
X149606000Y-77597000D03*
X149606000Y-78613000D03*
%TD*%
%TO.C,C16*%
X145034000Y-78613000D03*
X145034000Y-77597000D03*
%TD*%
D12*
%TO.C,C17*%
X137033000Y-74930000D03*
X136017000Y-74930000D03*
%TD*%
D23*
%TO.C,C18*%
X147828000Y-78613000D03*
X147828000Y-77597000D03*
%TD*%
D22*
%TO.C,C19*%
X162052000Y-65024000D03*
X160274000Y-65024000D03*
%TD*%
D12*
%TO.C,C20*%
X161544000Y-58928000D03*
X160528000Y-58928000D03*
%TD*%
D23*
%TO.C,C21*%
X150241000Y-56642000D03*
X150241000Y-57658000D03*
%TD*%
%TO.C,C22*%
X146177000Y-57658000D03*
X146177000Y-56642000D03*
%TD*%
%TO.C,C23*%
X143383000Y-56642000D03*
X143383000Y-57658000D03*
%TD*%
D12*
%TO.C,C24*%
X137033000Y-71374000D03*
X136017000Y-71374000D03*
%TD*%
D23*
%TO.C,C25*%
X138938000Y-74930000D03*
X138938000Y-73914000D03*
%TD*%
D12*
%TO.C,C26*%
X161290000Y-70612000D03*
X160274000Y-70612000D03*
%TD*%
D23*
%TO.C,C27*%
X151511000Y-78613000D03*
X151511000Y-77597000D03*
%TD*%
%TO.C,C28*%
X135255000Y-81534000D03*
X135255000Y-80518000D03*
%TD*%
%TO.C,C29*%
X140081000Y-81153000D03*
X140081000Y-80137000D03*
%TD*%
%TO.C,C30*%
X140970000Y-81153000D03*
X140970000Y-80137000D03*
%TD*%
%TO.C,C31*%
X145923000Y-81153000D03*
X145923000Y-80137000D03*
%TD*%
%TO.C,C32*%
X150876000Y-81280000D03*
X150876000Y-80264000D03*
%TD*%
%TO.C,C33*%
X155702000Y-81280000D03*
X155702000Y-80264000D03*
%TD*%
D12*
%TO.C,C34*%
X137033000Y-73152000D03*
X136017000Y-73152000D03*
%TD*%
%TO.C,C37*%
X131064000Y-76835000D03*
X130048000Y-76835000D03*
%TD*%
D22*
%TO.C,C35*%
X164338000Y-62611000D03*
X164338000Y-60833000D03*
%TD*%
%TO.C,C36*%
X164338000Y-65024000D03*
X164338000Y-66802000D03*
%TD*%
D23*
%TO.C,C38*%
X162306000Y-68453000D03*
X162306000Y-69469000D03*
%TD*%
D24*
%TO.C,C39*%
X116078000Y-78740000D03*
X114046000Y-78740000D03*
%TD*%
%TO.C,C40*%
X120777000Y-78740000D03*
X122809000Y-78740000D03*
%TD*%
D23*
%TO.C,C41*%
X162306000Y-71501000D03*
X162306000Y-72517000D03*
%TD*%
D24*
%TO.C,C43*%
X116078000Y-85090000D03*
X114046000Y-85090000D03*
%TD*%
%TO.C,C44*%
X123063000Y-85217000D03*
X121031000Y-85217000D03*
%TD*%
D25*
%TO.C,C45*%
X130302000Y-86741000D03*
X130302000Y-83185000D03*
%TD*%
D23*
%TO.C,C46*%
X117348000Y-85598000D03*
X117348000Y-84582000D03*
%TD*%
D12*
%TO.C,C47*%
X121539000Y-86741000D03*
X120523000Y-86741000D03*
%TD*%
D26*
%TO.C,D1*%
X187706000Y-88120000D03*
X187706000Y-92474000D03*
%TD*%
D27*
%TO.C,FID1*%
X109855000Y-100330000D03*
%TD*%
%TO.C,FID2*%
X109855000Y-33655000D03*
%TD*%
%TO.C,FID3*%
X184150000Y-42418000D03*
%TD*%
D28*
%TO.C,Flash_Con1*%
X170710000Y-94095000D03*
X167110000Y-92595000D03*
X170710000Y-88595000D03*
X167110000Y-94595000D03*
X170710000Y-95595000D03*
X167110000Y-88595000D03*
X167110000Y-98095000D03*
X167110000Y-95095000D03*
X170710000Y-98095000D03*
X167110000Y-91595000D03*
X167110000Y-92095000D03*
X167110000Y-97095000D03*
X167110000Y-94095000D03*
X167110000Y-96595000D03*
X170710000Y-96595000D03*
X170710000Y-92095000D03*
X167110000Y-96095000D03*
X170710000Y-96095000D03*
X167110000Y-91095000D03*
X170710000Y-94595000D03*
X170710000Y-97095000D03*
X170710000Y-92595000D03*
X170710000Y-93595000D03*
X167110000Y-93595000D03*
X167110000Y-97595000D03*
X170710000Y-89595000D03*
X170710000Y-97595000D03*
X170710000Y-93095000D03*
X170710000Y-90095000D03*
X167110000Y-93095000D03*
X167110000Y-90595000D03*
X167110000Y-89595000D03*
X167110000Y-90095000D03*
X167110000Y-95595000D03*
X170710000Y-90595000D03*
X170710000Y-91095000D03*
X170710000Y-95095000D03*
X170710000Y-91595000D03*
X167110000Y-89095000D03*
X170710000Y-89095000D03*
D29*
X170410000Y-99145000D03*
X170410000Y-87545000D03*
D30*
X168910000Y-99745000D03*
X168910000Y-86945000D03*
%TD*%
D31*
%TO.C,FUSE1*%
X177251000Y-88392000D03*
X181651000Y-88392000D03*
%TD*%
D32*
%TO.C,HEADPHONES1*%
X111000000Y-66040000D03*
X105000000Y-66040000D03*
D33*
X107900000Y-60740000D03*
X107100000Y-71340000D03*
X111000000Y-60740000D03*
D34*
X111300000Y-71340000D03*
X104800000Y-60740000D03*
%TD*%
D35*
%TO.C,L1*%
X180397000Y-85090000D03*
X177997000Y-85090000D03*
%TD*%
D21*
%TO.C,L3*%
X162306000Y-60833000D03*
X160274000Y-60833000D03*
%TD*%
%TO.C,L4*%
X160274000Y-66802000D03*
X162306000Y-66802000D03*
%TD*%
%TO.C,L5*%
X116078000Y-87122000D03*
X114046000Y-87122000D03*
%TD*%
D24*
%TO.C,L6*%
X119126000Y-85598000D03*
X119126000Y-87630000D03*
%TD*%
D36*
%TO.C,LAN1*%
X135245000Y-88550000D03*
X136515000Y-86010000D03*
X137785000Y-88550000D03*
X139055000Y-86010000D03*
X140325000Y-88550000D03*
X141595000Y-86010000D03*
X142865000Y-88550000D03*
X144135000Y-86010000D03*
D37*
X143770000Y-99998500D03*
X133090000Y-99998500D03*
D38*
X131900000Y-92200000D03*
X147500000Y-92200000D03*
D37*
X146310000Y-99998500D03*
X135630000Y-99998500D03*
D39*
X133985000Y-95250000D03*
X145415000Y-95250000D03*
%TD*%
D34*
%TO.C,MICROPHONE1*%
X104800000Y-44230000D03*
X111300000Y-54830000D03*
D33*
X111000000Y-44230000D03*
X107100000Y-54830000D03*
X107900000Y-44230000D03*
D32*
X105000000Y-49530000D03*
X111000000Y-49530000D03*
%TD*%
D40*
%TO.C,PWR1*%
X180670000Y-91636000D03*
D41*
X180520000Y-97636000D03*
D42*
X185120000Y-94890000D03*
%TD*%
D43*
%TO.C,PWRLED1*%
X190119000Y-92837000D03*
X190119000Y-91313000D03*
%TD*%
D44*
%TO.C,Q2*%
X136568000Y-79845000D03*
X138768000Y-81445000D03*
X138768000Y-79845000D03*
X136568000Y-81445000D03*
%TD*%
%TO.C,Q3*%
X142283000Y-81445000D03*
X144483000Y-79845000D03*
X144483000Y-81445000D03*
X142283000Y-79845000D03*
%TD*%
%TO.C,Q1*%
X152189000Y-81572000D03*
X154389000Y-79972000D03*
X154389000Y-81572000D03*
X152189000Y-79972000D03*
%TD*%
D23*
%TO.C,R1*%
X190119000Y-88392000D03*
X190119000Y-89408000D03*
%TD*%
D12*
%TO.C,R2*%
X184023000Y-82296000D03*
X183007000Y-82296000D03*
%TD*%
%TO.C,R3*%
X186563000Y-82296000D03*
X185547000Y-82296000D03*
%TD*%
D22*
%TO.C,R5*%
X149352000Y-80899000D03*
X147574000Y-80899000D03*
%TD*%
D12*
%TO.C,R6*%
X137033000Y-72263000D03*
X136017000Y-72263000D03*
%TD*%
D22*
%TO.C,R8*%
X160655000Y-75311000D03*
X162433000Y-75311000D03*
%TD*%
D12*
%TO.C,R19*%
X127381000Y-67945000D03*
X128397000Y-67945000D03*
%TD*%
D23*
%TO.C,R12*%
X151892000Y-56642000D03*
X151892000Y-57658000D03*
%TD*%
%TO.C,R13*%
X148971000Y-57658000D03*
X148971000Y-56642000D03*
%TD*%
D12*
%TO.C,R14*%
X160274000Y-76581000D03*
X161290000Y-76581000D03*
%TD*%
%TO.C,R15*%
X161544000Y-56642000D03*
X160528000Y-56642000D03*
%TD*%
%TO.C,R17*%
X136017000Y-74041000D03*
X137033000Y-74041000D03*
%TD*%
D23*
%TO.C,R18*%
X147447000Y-57658000D03*
X147447000Y-56642000D03*
%TD*%
%TO.C,R21*%
X117856000Y-80518000D03*
X117856000Y-79502000D03*
%TD*%
%TO.C,R22*%
X124333000Y-80010000D03*
X124333000Y-78994000D03*
%TD*%
D12*
%TO.C,R23*%
X160274000Y-69469000D03*
X161290000Y-69469000D03*
%TD*%
%TO.C,R24*%
X161290000Y-68453000D03*
X160274000Y-68453000D03*
%TD*%
%TO.C,R25*%
X160274000Y-72517001D03*
X161290000Y-72517001D03*
%TD*%
%TO.C,R26*%
X161290000Y-71501000D03*
X160274000Y-71501000D03*
%TD*%
D23*
%TO.C,R27*%
X134366000Y-81534000D03*
X134366000Y-80518000D03*
%TD*%
D12*
%TO.C,R28*%
X147828000Y-82296000D03*
X148844000Y-82296000D03*
%TD*%
D23*
%TO.C,R29*%
X117855999Y-81280000D03*
X117855999Y-82296000D03*
%TD*%
%TO.C,R30*%
X124333000Y-81407000D03*
X124333000Y-82423000D03*
%TD*%
%TO.C,R31*%
X113538000Y-80391000D03*
X113538000Y-81407000D03*
%TD*%
%TO.C,R32*%
X120269000Y-80518001D03*
X120269000Y-81534001D03*
%TD*%
%TO.C,R33*%
X113538000Y-83312000D03*
X113538000Y-82296000D03*
%TD*%
%TO.C,R34*%
X120268999Y-82550000D03*
X120268999Y-83566000D03*
%TD*%
D45*
%TO.C,U2*%
X185831000Y-85405000D03*
X185831000Y-83505000D03*
X183231000Y-85405000D03*
X183231000Y-84455000D03*
X183231000Y-83505000D03*
%TD*%
D46*
%TO.C,U3*%
X131064000Y-69790000D03*
X129794000Y-69790000D03*
X128524000Y-69790000D03*
X127254000Y-69790000D03*
X127254000Y-74990000D03*
X128524000Y-74990000D03*
X129794000Y-74990000D03*
X131064000Y-74990000D03*
%TD*%
D47*
%TO.C,U4*%
X114747000Y-83215000D03*
X115697000Y-83215000D03*
X116647000Y-83215000D03*
X114747000Y-80615000D03*
X116647000Y-80615000D03*
%TD*%
%TO.C,U5*%
X123378000Y-80615000D03*
X121478000Y-80615000D03*
X123378000Y-83215000D03*
X122428000Y-83215000D03*
X121478000Y-83215000D03*
%TD*%
D48*
%TO.C,UEXT1*%
X105410000Y-79375000D03*
D32*
X107950000Y-79375000D03*
X105410000Y-81915000D03*
X107950000Y-81915000D03*
X105410000Y-84455000D03*
X107950000Y-84455000D03*
X105410000Y-86995000D03*
X107950000Y-86995000D03*
X105410000Y-89535000D03*
X107950000Y-89535000D03*
%TD*%
D49*
%TO.C,MH1*%
X105000000Y-99000000D03*
%TD*%
%TO.C,MH2*%
X105000000Y-35000000D03*
%TD*%
%TO.C,MH3*%
X175260000Y-38481000D03*
%TD*%
%TO.C,MH4*%
X189000000Y-99000000D03*
%TD*%
D12*
%TO.C,C42*%
X146939000Y-82296000D03*
X145923000Y-82296000D03*
%TD*%
D23*
%TO.C,L2*%
X180150000Y-42926000D03*
X180150000Y-41910000D03*
%TD*%
D12*
%TO.C,R7*%
X154305000Y-78613000D03*
X153289000Y-78613000D03*
%TD*%
D23*
%TO.C,R20*%
X154940000Y-56642000D03*
X154940000Y-57658000D03*
%TD*%
D24*
%TO.C,C48*%
X186563000Y-74295000D03*
X188595000Y-74295000D03*
%TD*%
%TO.C,C50*%
X182245000Y-72644000D03*
X184277000Y-72644000D03*
%TD*%
D23*
%TO.C,C51*%
X181991000Y-70358000D03*
X181991000Y-69342000D03*
%TD*%
D50*
%TO.C,D2*%
X190460000Y-79248000D03*
X185460000Y-79248000D03*
%TD*%
D51*
%TO.C,EXT1*%
X170180000Y-39370000D03*
X170180000Y-36830000D03*
X167640000Y-39370000D03*
X167640000Y-36830000D03*
X165100000Y-39370000D03*
X165100000Y-36830000D03*
X162560000Y-39370000D03*
X162560000Y-36830000D03*
X160020000Y-39370000D03*
X160020000Y-36830000D03*
X157480000Y-36830000D03*
X157480000Y-39370000D03*
X154940000Y-36830000D03*
X154940000Y-39370000D03*
X152400000Y-36830000D03*
X152400000Y-39370000D03*
X149860000Y-36830000D03*
X149860000Y-39370000D03*
X147320000Y-36830000D03*
D52*
X147320000Y-39370000D03*
%TD*%
D53*
%TO.C,FET1*%
X183352440Y-79689960D03*
X183352440Y-77787500D03*
X181142640Y-78742540D03*
%TD*%
D24*
%TO.C,L7*%
X180467000Y-71882000D03*
X180467000Y-69850000D03*
%TD*%
D17*
%TO.C,LCD1*%
X137160000Y-35560000D03*
D54*
X126365000Y-37592000D03*
X126365000Y-33528000D03*
X127635000Y-37592000D03*
X127635000Y-33528000D03*
X128905000Y-37592000D03*
X128905000Y-33528000D03*
X130175000Y-37592000D03*
X130175000Y-33528000D03*
X131445000Y-37592000D03*
X131445000Y-33528000D03*
X132715000Y-37592000D03*
X132715000Y-33528000D03*
X133985000Y-37592000D03*
X133985000Y-33528000D03*
X135255000Y-37592000D03*
X135255000Y-33528000D03*
X136525000Y-37592000D03*
X136525000Y-33528000D03*
X137795000Y-37592000D03*
X137795000Y-33528000D03*
X125095000Y-33528000D03*
X125095000Y-37592000D03*
X123825000Y-33528000D03*
X123825000Y-37592000D03*
X122555000Y-33528000D03*
X122555000Y-37592000D03*
X121285000Y-33528000D03*
X121285000Y-37592000D03*
X120015000Y-33528000D03*
X120015000Y-37592000D03*
X118745000Y-33528000D03*
X118745000Y-37592000D03*
X117475000Y-33528000D03*
X117475000Y-37592000D03*
X116205000Y-33528000D03*
X116205000Y-37592000D03*
X114935000Y-33528000D03*
X114935000Y-37592000D03*
X113665000Y-33528000D03*
X113665000Y-37592000D03*
D17*
X114300000Y-35560000D03*
%TD*%
D12*
%TO.C,R35*%
X187071000Y-76200000D03*
X188087000Y-76200000D03*
%TD*%
%TO.C,R36*%
X180975000Y-76200000D03*
X179959000Y-76200000D03*
%TD*%
%TO.C,R37*%
X179959001Y-74168000D03*
X180975001Y-74168000D03*
%TD*%
%TO.C,R38*%
X179959000Y-73279001D03*
X180975000Y-73279001D03*
%TD*%
D23*
%TO.C,R39*%
X181991000Y-66421000D03*
X181991000Y-65405000D03*
%TD*%
D12*
%TO.C,R40*%
X188976000Y-81407000D03*
X187960000Y-81407000D03*
%TD*%
%TO.C,R41*%
X191135000Y-81407000D03*
X190119000Y-81407000D03*
%TD*%
D45*
%TO.C,U7*%
X182215000Y-74361000D03*
X182215000Y-75311000D03*
X182215000Y-76261000D03*
X184815000Y-74361000D03*
X184815000Y-76261000D03*
%TD*%
D55*
%TO.C,USB-OTG1*%
X184937000Y-68697500D03*
D56*
X184937000Y-67960000D03*
X184937000Y-67310000D03*
X184937000Y-66660000D03*
D55*
X184937000Y-65922500D03*
D29*
X186187000Y-69310000D03*
X186187000Y-65310000D03*
D57*
X189487000Y-68810000D03*
X189487000Y-65810000D03*
D58*
X188337000Y-70910000D03*
X184867000Y-70910000D03*
X184867000Y-63710000D03*
X188337000Y-63710000D03*
%TD*%
D22*
%TO.C,C49*%
X105156000Y-39878000D03*
X105156000Y-41656000D03*
%TD*%
%TO.C,C52*%
X108458000Y-41656000D03*
X108458000Y-39878000D03*
%TD*%
D12*
%TO.C,C53*%
X109728000Y-41910000D03*
X110744000Y-41910000D03*
%TD*%
%TO.C,C54*%
X109728000Y-40767000D03*
X110744000Y-40767000D03*
%TD*%
D23*
%TO.C,C55*%
X114935001Y-62865000D03*
X114935001Y-61849000D03*
%TD*%
%TO.C,C56*%
X114935000Y-64770000D03*
X114935000Y-63754000D03*
%TD*%
%TO.C,C57*%
X114935000Y-67691000D03*
X114935000Y-68707000D03*
%TD*%
D59*
%TO.C,PGM1*%
X128828000Y-78613000D03*
X130078000Y-78613000D03*
X131328000Y-78613000D03*
X132578000Y-78613000D03*
X133828000Y-78613000D03*
X135078000Y-78613000D03*
%TD*%
D12*
%TO.C,R9*%
X106299000Y-39878000D03*
X107315000Y-39878000D03*
%TD*%
%TO.C,R10*%
X110744000Y-39624000D03*
X109728000Y-39624000D03*
%TD*%
D23*
%TO.C,R11*%
X114935001Y-59817000D03*
X114935001Y-60833000D03*
%TD*%
%TO.C,R42*%
X114935000Y-65786000D03*
X114935000Y-66802000D03*
%TD*%
%TO.C,R43*%
X114935000Y-70739000D03*
X114935000Y-69723000D03*
%TD*%
D60*
%TO.C,GND1*%
X190500000Y-74803000D03*
%TD*%
%TO.C,ADC1_IN10*%
X142240000Y-39370000D03*
%TD*%
%TO.C,PH6*%
X142240000Y-36830000D03*
%TD*%
D23*
%TO.C,R44*%
X144272000Y-56642000D03*
X144272000Y-57658000D03*
%TD*%
%TO.C,R45*%
X145161000Y-57658000D03*
X145161000Y-56642000D03*
%TD*%
M02*
